<svg width="155" height="221" viewBox="0 0 155 221" fill="none" xmlns="http://www.w3.org/2000/svg">
<path d="M11.5 10.5L1 218.5L12 219.5L20 2L11.5 10.5Z" fill="#092C2E"/>
<path d="M48 191.5L44 219.5L56.5 218.5L70.5 86L63 82.5L50 184L26 106L48 191.5Z" fill="#092C2E"/>
<path d="M84.5 218.5L114.892 139.281L120 20L130.5 14.5L126.5 104.5L151 41.5L153.5 44L126.5 113.5L121 218.5H111.5L114.528 147.782L88.5 218.5H84.5Z" fill="#092C2E"/>
<path d="M11.5 10.5L1 218.5L12 219.5L20 2L11.5 10.5Z" stroke="#092C2E"/>
<path d="M48 191.5L44 219.5L56.5 218.5L70.5 86L63 82.5L50 184L26 106L48 191.5Z" stroke="#092C2E"/>
<path d="M84.5 218.5L114.892 139.281L120 20L130.5 14.5L126.5 104.5L151 41.5L153.5 44L126.5 113.5L121 218.5H111.5L114.528 147.782L88.5 218.5H84.5Z" stroke="#092C2E"/>
</svg>
