<svg width="38" height="38" viewBox="0 0 38 38" fill="none" xmlns="http://www.w3.org/2000/svg">
<path d="M29.3548 6.52337L20.6464 3.2617C19.7439 2.9292 18.2714 2.9292 17.3689 3.2617L8.66061 6.52337C6.98227 7.1567 5.62061 9.12004 5.62061 10.9092V23.7342C5.62061 25.0167 6.45977 26.7109 7.48894 27.4709L16.1973 33.9784C17.7331 35.1342 20.2506 35.1342 21.7864 33.9784L30.4948 27.4709C31.5239 26.695 32.3631 25.0167 32.3631 23.7342V10.9092C32.3789 9.12004 31.0173 7.1567 29.3548 6.52337ZM24.5098 15.39L17.7014 22.1984C17.4639 22.4359 17.1631 22.5467 16.8623 22.5467C16.5614 22.5467 16.2606 22.4359 16.0231 22.1984L13.4898 19.6334C13.0306 19.1742 13.0306 18.4142 13.4898 17.955C13.9489 17.4959 14.7089 17.4959 15.1681 17.955L16.8781 19.665L22.8473 13.6959C23.3064 13.2367 24.0664 13.2367 24.5256 13.6959C24.9848 14.155 24.9848 14.9309 24.5098 15.39Z" fill="#1CBD00"/>
</svg>
