<svg width="46" height="37" viewBox="0 0 46 37" fill="none" xmlns="http://www.w3.org/2000/svg">
<g clip-path="url(#clip0_24_379)">
<path d="M37.95 32.375H8.05C7.4175 32.375 6.9 32.8953 6.9 33.5312V35.8438C6.9 36.4797 7.4175 37 8.05 37H37.95C38.5825 37 39.1 36.4797 39.1 35.8438V33.5312C39.1 32.8953 38.5825 32.375 37.95 32.375ZM42.55 9.25C40.6453 9.25 39.1 10.8037 39.1 12.7188C39.1 13.2318 39.215 13.7088 39.4163 14.1496L34.2125 17.2859C33.1056 17.9508 31.6753 17.575 31.0356 16.4477L25.1778 6.14258C25.9469 5.50664 26.45 4.55273 26.45 3.46875C26.45 1.55371 24.9047 0 23 0C21.0953 0 19.55 1.55371 19.55 3.46875C19.55 4.55273 20.0531 5.50664 20.8222 6.14258L14.9644 16.4477C14.3247 17.575 12.8872 17.9508 11.7875 17.2859L6.59094 14.1496C6.785 13.716 6.90719 13.2318 6.90719 12.7188C6.90719 10.8037 5.36187 9.25 3.45719 9.25C1.5525 9.25 0 10.8037 0 12.7188C0 14.6338 1.54531 16.1875 3.45 16.1875C3.63687 16.1875 3.82375 16.1586 4.00344 16.1297L9.2 30.0625H36.8L41.9966 16.1297C42.1762 16.1586 42.3631 16.1875 42.55 16.1875C44.4547 16.1875 46 14.6338 46 12.7188C46 10.8037 44.4547 9.25 42.55 9.25Z" fill="#F49A50"/>
</g>
<defs>
<clipPath id="clip0_24_379">
<rect width="46" height="37" fill="white"/>
</clipPath>
</defs>
</svg>
