<svg width="38" height="38" viewBox="0 0 38 38" fill="none" xmlns="http://www.w3.org/2000/svg">
<path d="M12.1127 33.1075C12.0652 33.1075 12.0019 33.1392 11.9544 33.1392C8.88272 31.6192 6.38105 29.1017 4.84521 26.03C4.84521 25.9825 4.87688 25.9192 4.87688 25.8717C6.80855 26.4417 8.80355 26.8692 10.7827 27.2017C11.131 29.1967 11.5427 31.1759 12.1127 33.1075Z" fill="#FEC85B"/>
<path d="M33.155 26.0459C31.5875 29.1967 28.975 31.7459 25.7925 33.2817C26.3941 31.2709 26.9008 29.2442 27.2333 27.2017C29.2283 26.8692 31.1916 26.4417 33.1233 25.8717C33.1075 25.935 33.155 25.9984 33.155 26.0459Z" fill="#FEC85B"/>
<path d="M33.2816 12.2076C31.2866 11.6059 29.2758 11.1151 27.2333 10.7667C26.9008 8.72422 26.41 6.69755 25.7925 4.71838C29.07 6.28588 31.7141 8.93005 33.2816 12.2076Z" fill="#FEC85B"/>
<path d="M12.1124 4.89247C11.5424 6.82414 11.1308 8.78747 10.7983 10.7825C8.75576 11.0991 6.72909 11.6058 4.71826 12.2075C6.2541 9.02497 8.80326 6.41247 11.9541 4.84497C12.0016 4.84497 12.0649 4.89247 12.1124 4.89247Z" fill="#FEC85B"/>
<path d="M24.5258 10.4341C20.8525 10.0225 17.1475 10.0225 13.4741 10.4341C13.87 8.26496 14.3766 6.09579 15.0891 4.00579C15.1208 3.87913 15.105 3.78413 15.1208 3.65746C16.3716 3.35663 17.6541 3.16663 19 3.16663C20.33 3.16663 21.6283 3.35663 22.8633 3.65746C22.8791 3.78413 22.8791 3.87913 22.9108 4.00579C23.6233 6.11163 24.13 8.26496 24.5258 10.4341Z" fill="#FEC85B"/>
<path d="M10.434 24.5258C8.249 24.13 6.09567 23.6233 4.00567 22.9108C3.879 22.8791 3.784 22.895 3.65734 22.8791C3.3565 21.6283 3.1665 20.3458 3.1665 19C3.1665 17.67 3.3565 16.3716 3.65734 15.1366C3.784 15.1208 3.879 15.1208 4.00567 15.0891C6.1115 14.3925 8.249 13.87 10.434 13.4741C10.0382 17.1475 10.0382 20.8525 10.434 24.5258Z" fill="#FEC85B"/>
<path d="M34.8334 19C34.8334 20.3458 34.6434 21.6283 34.3426 22.8791C34.2159 22.895 34.1209 22.8791 33.9943 22.9108C31.8884 23.6075 29.7351 24.13 27.5659 24.5258C27.9776 20.8525 27.9776 17.1475 27.5659 13.4741C29.7351 13.87 31.9043 14.3766 33.9943 15.0891C34.1209 15.1208 34.2159 15.1366 34.3426 15.1366C34.6434 16.3875 34.8334 17.67 34.8334 19Z" fill="#FEC85B"/>
<path d="M24.5258 27.5658C24.13 29.7508 23.6233 31.9041 22.9108 33.9941C22.8791 34.1208 22.8791 34.2158 22.8633 34.3425C21.6283 34.6433 20.33 34.8333 19 34.8333C17.6541 34.8333 16.3716 34.6433 15.1208 34.3425C15.105 34.2158 15.1208 34.1208 15.0891 33.9941C14.3925 31.8883 13.87 29.7508 13.4741 27.5658C15.3108 27.7716 17.1475 27.9141 19 27.9141C20.8525 27.9141 22.705 27.7716 24.5258 27.5658Z" fill="#FEC85B"/>
<path d="M24.9584 24.9586C20.9984 25.4582 17.0013 25.4582 13.0412 24.9586C12.5416 20.9985 12.5416 17.0014 13.0412 13.0414C17.0013 12.5417 20.9984 12.5417 24.9584 13.0414C25.4581 17.0014 25.4581 20.9985 24.9584 24.9586Z" fill="#FEC85B"/>
</svg>
