<svg width="99" height="80" viewBox="0 0 99 80" fill="none" xmlns="http://www.w3.org/2000/svg">
<path fill-rule="evenodd" clip-rule="evenodd" d="M69.3319 75.5947C73.0198 75.4169 76.6697 75.2735 80.3504 74.9883C81.1425 74.9298 81.7315 74.2441 81.6709 73.4573C81.6124 72.6652 80.9214 72.0741 80.1347 72.1347C76.4741 72.4154 72.8551 72.5587 69.1928 72.7342C68.4016 72.7746 67.7932 73.4466 67.8304 74.2304C67.8708 75.0215 68.5408 75.6351 69.3319 75.5947Z" fill="#868686"/>
<path fill-rule="evenodd" clip-rule="evenodd" d="M52.8279 49.9036C61.2499 41.83 69.2588 33.3358 77.5031 25.0878C78.0621 24.5256 78.0603 23.6204 77.5034 23.0635C76.9412 22.5045 76.0382 22.501 75.4739 23.0611C67.2465 31.2973 59.2548 39.7797 50.8464 47.8341C50.2735 48.3847 50.257 49.2889 50.8023 49.8597C51.3529 50.4326 52.2571 50.4489 52.8279 49.9036Z" fill="white"/>
<path fill-rule="evenodd" clip-rule="evenodd" d="M14.7597 32.0164C16.8602 22.3797 18.6942 12.6694 20.9023 3.05645C21.0748 2.28727 20.5942 1.52044 19.8271 1.34259C19.0547 1.16265 18.2858 1.64854 18.1079 2.41562C15.901 12.0413 14.0628 21.7624 11.9635 31.4118C11.7963 32.1831 12.2843 32.9468 13.0556 33.1139C13.8322 33.2832 14.5905 32.793 14.7597 32.0164Z" fill="#868686"/>
</svg>
