<svg width="37" height="12" viewBox="0 0 37 12" fill="none" xmlns="http://www.w3.org/2000/svg">
<path d="M26.8968 0.491536C26.0369 0.159947 25.128 -0.00644699 24.2129 0.000191047C21.2533 0.000191047 19.1631 1.57798 19.1483 3.84287C19.1298 5.50679 20.6337 6.44446 21.7712 7.0004C22.9384 7.57201 23.3287 7.9322 23.325 8.44312C23.3176 9.22027 22.3927 9.57263 21.5326 9.57263C20.3506 9.57263 19.7051 9.39841 18.7118 8.96187L18.3437 8.77982L17.9238 11.3873C18.6434 11.7044 19.94 11.9765 21.2792 12C24.4256 12 26.4825 10.432 26.5065 8.02225C26.5324 6.69307 25.7185 5.68884 24.0057 4.85884C22.9643 4.32051 22.3188 3.96032 22.3188 3.41417C22.3188 2.93065 22.8718 2.41386 24.0279 2.41386C24.7973 2.39415 25.5619 2.54693 26.2716 2.86214L26.5491 2.99329L26.969 0.473919L26.8968 0.491536ZM34.5769 0.211607H32.2647C31.5452 0.211607 31.0032 0.421065 30.6887 1.17668L26.242 11.8375H29.3884L30.0173 10.0894L33.8573 10.0933C33.948 10.5025 34.2254 11.8375 34.2254 11.8375H37L34.5769 0.211607ZM14.8921 0.113728H17.8905L16.0149 11.7455H13.0202L14.8921 0.109814V0.113728ZM7.28051 6.52472L7.59126 8.1397L10.5212 0.211607H13.6972L8.97855 11.8219H5.80998L3.22037 1.99102C3.17842 1.82892 3.07993 1.6897 2.94476 1.60147C2.01139 1.09121 1.02243 0.703986 0 0.448469L0.0406938 0.203775H4.86662C5.52142 0.231181 6.04859 0.44847 6.22432 1.18843L7.27866 6.53059V6.52472H7.28051ZM30.8774 7.711L32.0723 4.45754C32.0575 4.49278 32.3184 3.7861 32.47 3.34957L32.6754 4.35379L33.369 7.70904H30.8756V7.711H30.8774Z" fill="white"/>
</svg>
