<svg width="38" height="38" viewBox="0 0 38 38" fill="none" xmlns="http://www.w3.org/2000/svg">
<path d="M18.9998 22.7684C21.081 22.7684 22.7681 21.0812 22.7681 19C22.7681 16.9188 21.081 15.2317 18.9998 15.2317C16.9186 15.2317 15.2314 16.9188 15.2314 19C15.2314 21.0812 16.9186 22.7684 18.9998 22.7684Z" fill="#1EB2BE"/>
<path d="M31.6665 29.6875C31.4131 29.6875 31.1756 29.6083 30.9539 29.45C30.4314 29.0541 30.3206 28.3099 30.7165 27.7874C32.6323 25.2383 33.6456 22.1983 33.6456 19C33.6456 15.8016 32.6323 12.7616 30.7165 10.2125C30.3206 9.68998 30.4314 8.94578 30.9539 8.54995C31.4764 8.15411 32.2206 8.26494 32.6165 8.78744C34.849 11.7483 36.0206 15.2791 36.0206 19C36.0206 22.7208 34.849 26.2516 32.6165 29.2125C32.379 29.5291 32.0306 29.6875 31.6665 29.6875Z" fill="#1EB2BE"/>
<path d="M6.33317 29.6875C5.969 29.6875 5.62066 29.5291 5.38316 29.2125C3.15066 26.2516 1.979 22.7208 1.979 19C1.979 15.2791 3.15066 11.7483 5.38316 8.78744C5.77899 8.26494 6.52319 8.15411 7.04569 8.54995C7.56819 8.94578 7.67901 9.68998 7.28318 10.2125C5.36735 12.7616 4.354 15.8016 4.354 19C4.354 22.1983 5.36735 25.2383 7.28318 27.7874C7.67901 28.3099 7.56819 29.0541 7.04569 29.45C6.83986 29.6083 6.5865 29.6875 6.33317 29.6875Z" fill="#1EB2BE"/>
<path d="M26.6 25.8875C26.3467 25.8875 26.1092 25.8084 25.8875 25.65C25.365 25.2542 25.2542 24.51 25.65 23.9875C26.7425 22.5467 27.3125 20.8208 27.3125 19C27.3125 17.1792 26.7425 15.4533 25.65 14.0125C25.2542 13.49 25.365 12.7458 25.8875 12.35C26.41 11.9541 27.1542 12.065 27.55 12.5875C28.9433 14.4559 29.6875 16.6725 29.6875 19C29.6875 21.3275 28.9433 23.56 27.55 25.4125C27.3125 25.7291 26.9642 25.8875 26.6 25.8875Z" fill="#1EB2BE"/>
<path d="M11.4 25.8875C11.0359 25.8875 10.6875 25.7291 10.45 25.4125C9.05668 23.5441 8.3125 21.3275 8.3125 19C8.3125 16.6725 9.05668 14.44 10.45 12.5875C10.8458 12.065 11.59 11.9541 12.1125 12.35C12.635 12.7458 12.7458 13.49 12.35 14.0125C11.2575 15.4533 10.6875 17.1792 10.6875 19C10.6875 20.8208 11.2575 22.5467 12.35 23.9875C12.7458 24.51 12.635 25.2542 12.1125 25.65C11.9067 25.8084 11.6534 25.8875 11.4 25.8875Z" fill="#1EB2BE"/>
</svg>
